<?xml version="1.0" encoding="utf-8"?>
<!-- Generator: Adobe Illustrator 25.4.1, SVG Export Plug-In . SVG Version: 6.00 Build 0)  -->
<svg version="1.1" id="Layer_1" xmlns="http://www.w3.org/2000/svg" xmlns:xlink="http://www.w3.org/1999/xlink" x="0px" y="0px"
	 viewBox="0 0 1279.1 112.6" style="enable-background:new 0 0 1279.1 112.6;" xml:space="preserve">
<g>
	<path d="M937.2,29.2c3-3.5,4.5-8.1,4.1-12.7c-4.5,0.4-8.7,2.6-11.7,6.1c-2.5,2.9-4.8,7.7-4.2,12.2
		C929.9,35.1,934.4,32.5,937.2,29.2"/>
	<path d="M941.2,35.6c-6.5-0.4-12.1,3.7-15.2,3.7c-3.1,0-7.9-3.5-13-3.4c-6.8,0.2-13.1,3.9-16.4,9.9c-7,12.1-1.8,30,5,39.8
		c3.3,4.9,7.3,10.2,12.5,10c5-0.2,6.9-3.2,13-3.2c6.1,0,7.8,3.2,13,3.1c5.5-0.1,8.9-4.9,12.2-9.7c2.3-3.5,4.2-7.2,5.4-11.2
		c-0.1-0.1-10.5-4.1-10.6-16.1c-0.1-10,8.2-14.8,8.6-15.1C951.1,36.6,943.8,35.8,941.2,35.6"/>
	<path d="M1011.1,75.4h-27.8l-6.7,19.8h-11.8l26.4-73.1h12.2l26.4,73.1h-12L1011.1,75.4z M986.1,66.3h22.1l-10.9-32.1H997
		L986.1,66.3z"/>
	<path d="M1036,41.9h10.4v9.1h0.2c1.8-6.2,6.5-9.9,12.8-9.9c1.3,0,2.5,0.2,3.8,0.4v10.2c-1.6-0.5-3.3-0.7-5-0.6
		c-7,0-11.4,4.7-11.4,12.2v31.9H1036V41.9z"/>
	<path d="M1103.3,60.2c-1.2-5.7-5.4-10.2-12.5-10.2c-8.5,0-14,7-14,18.5c0,11.7,5.5,18.5,14.1,18.5c6.7,0,11.1-3.7,12.4-9.9h10.5
		c-1.2,11.3-10.2,19-23,19c-15.2,0-25.2-10.4-25.2-27.6c0-16.9,9.9-27.6,25.1-27.6c13.7,0,22.1,8.8,23,19.3H1103.3z"/>
	<path d="M1119.4,80c0-9.3,7.1-15,19.8-15.7l14.6-0.9v-4.1c0-5.9-4-9.5-10.7-9.5c-6.3,0-10.3,3-11.2,7.8h-10.3
		c0.6-9.6,8.8-16.7,22-16.7c12.9,0,21.2,6.8,21.2,17.5v36.7h-10.5v-8.8h-0.2c-3.1,5.9-9.8,9.7-16.8,9.7
		C1126.7,96,1119.4,89.6,1119.4,80z M1153.8,75.2V71l-13.1,0.8c-6.5,0.5-10.2,3.3-10.2,7.9s3.8,7.7,9.7,7.7
		C1147.8,87.4,1153.8,82.1,1153.8,75.2L1153.8,75.2z"/>
	<path d="M1172.4,68.5c0-16.8,8.9-27.5,22.3-27.5c7.6,0,13.7,3.8,16.7,9.7h0.2V22.1h11v73.1h-10.7v-9.1h-0.2c-3.1,6.1-9.2,10-17,10
		C1181.3,96,1172.4,85.3,1172.4,68.5z M1183.6,68.5c0,11.2,5.4,18.3,14.1,18.3c8.4,0,14-7.1,14-18.3s-5.6-18.3-14-18.3
		C1189,50.2,1183.6,57.3,1183.6,68.5z"/>
	<path d="M1278.5,79.5c-1.5,9.7-10.7,16.7-22.9,16.7c-15.7,0-25.1-10.6-25.1-27.4s9.6-27.8,24.7-27.8c14.8,0,24,10.4,24,26.6v3.7
		h-37.6v0.7c0,9.3,5.6,15.4,14.3,15.4c6.2,0,10.8-3.1,12.3-7.8H1278.5z M1241.5,63.6h26.6c-0.2-8.2-5.4-13.9-13.1-13.9
		C1247.4,49.7,1242.1,55.5,1241.5,63.6L1241.5,63.6z"/>
</g>
<g>
	<path d="M406.4,29.2c3-3.5,4.4-8.1,4.1-12.7c-4.5,0.4-8.7,2.6-11.7,6.1c-2.5,2.9-4.8,7.7-4.2,12.2
		C399.1,35.2,403.6,32.5,406.4,29.2"/>
	<path d="M410.4,35.6c-6.5-0.4-12.1,3.7-15.2,3.7s-7.9-3.5-13-3.4c-6.8,0.2-13.1,3.9-16.3,9.9c-7,12.1-1.8,30,5,39.8
		c3.3,4.9,7.3,10.2,12.6,10c5-0.2,6.9-3.2,12.9-3.2s7.8,3.2,13,3.1c5.5-0.1,8.8-4.9,12.2-9.7c2.4-3.4,4.2-7.2,5.5-11.2
		c-0.1-0.1-10.5-4.1-10.6-16.1c-0.1-10,8.2-14.8,8.6-15.1C420.4,36.6,413,35.8,410.4,35.6"/>
	<path d="M717.7,95.2h-10V73.5h-20.6v-9.9h20.7V41.9h10v21.7h20.7v9.9h-20.7V95.2z"/>
	<path d="M441.1,95.1V22.1h10.3l37.9,53.9h0.4V22.1h11v73.1h-10.2l-37.9-53.8h-0.5v53.8H441.1z"/>
	<path d="M556.7,79.5c-1.5,9.7-10.9,16.3-22.9,16.3c-15.5,0-25.1-10.4-25.1-27s9.7-27.5,24.7-27.5c14.7,0,24,10.1,24,26.3v3.8h-37.6
		v0.7c0,9.1,5.7,15.1,14.3,15.1c6.1,0,10.8-2.9,12.3-7.5L556.7,79.5z M519.7,63.6h26.6c-0.2-8.2-5.5-13.5-13.1-13.5
		S520.3,55.5,519.7,63.6L519.7,63.6z"/>
	<path d="M620.6,95.1h-11.4L598,55.2h-0.2l-11.1,39.9h-11.3l-14.6-53.3h10.9l9.7,41.9h0.2l11.1-41.9h10.5l11.1,41.9h0.2l9.7-41.9
		h10.8L620.6,95.1z"/>
	<path d="M659.5,40.9c12.4,0,20.5,6.9,20.8,16.7H670c-0.6-5.2-4.4-8.4-10.5-8.4c-5.9,0-9.9,2.9-9.9,7.1c0,3.3,2.4,5.6,8.2,6.9l8.7,2
		c10.9,2.5,15,6.8,15,14.5c0,9.7-9.1,16.4-21.6,16.4c-13.3,0-21.3-6.5-22.3-16.7h10.8c1,5.6,4.8,8.3,11.5,8.3s10.6-2.7,10.6-7.1
		c0-3.4-2-5.5-7.8-6.8l-8.7-2c-10.1-2.4-15.1-7.2-15.1-15C638.9,47.4,647.2,40.9,659.5,40.9z"/>
</g>
<g>
	<path d="M62.7,43.7c-0.5,0.4-8.6,4.9-8.6,15.1c0,11.8,10.3,16,10.6,16.1c-1.2,4-3.1,7.8-5.5,11.3c-3.4,4.8-6.9,9.8-12.3,9.8
		s-6.8-3.2-13.1-3.2c-6.1,0-8.3,3.3-13.2,3.3S12.3,91.6,8.3,86C3.1,78.2,0.2,69,0,59.6C0,44.2,10,36,20,36c5.2,0,9.6,3.4,12.9,3.4
		c3.1,0,8-3.6,14-3.6C53.2,35.6,59.1,38.6,62.7,43.7z M33.3,34.9c-0.4,0-0.7,0-1.1-0.1c-0.1-0.5-0.2-0.9-0.2-1.4
		c0.2-4,1.7-7.8,4.4-10.8c2.9-3.4,7.7-5.9,11.7-6.1c0.1,0.5,0.2,1,0.2,1.6c-0.1,4.1-1.6,8-4.2,11.2C41.4,32.5,36.9,34.9,33.3,34.9z"
		/>
	<path d="M88.9,26.4v13.3h10.7v8.8H89v31.3c0,4.8,2.1,7.1,6.8,7.1c1.3,0,2.6-0.1,3.8-0.3v8.8c-2.1,0.3-4.2,0.5-6.3,0.5
		c-11.1,0-15.4-4.3-15.4-15V48.4h-8.3v-8.8h8.2V26.4H88.9z"/>
	<path d="M137.1,95.4h-11.8l-19.8-55.8h11.7l13.9,44.8h0.3l13.9-44.8h11.5L137.1,95.4z"/>
	<path d="M186.6,94.1h-10.2V71.9h-21.2v-10h21.2V39.6h10.2v22.2h21.2v10h-21.2V94.1z"/>
</g>
</svg>
