<svg id="Artwork" xmlns="http://www.w3.org/2000/svg" xmlns:xlink="http://www.w3.org/1999/xlink" viewBox="0 0 360 360"><defs><style>.cls-1{fill-rule:evenodd;fill:url(#linear-gradient);}.cls-2{fill:#d0112b;}</style><linearGradient id="linear-gradient" x1="288" y1="466.6" x2="288" y2="115.76" gradientUnits="userSpaceOnUse"><stop offset="0" stop-color="#e0e0e0"/><stop offset="1" stop-color="#f8f8fa"/></linearGradient></defs><path class="cls-1" d="M468,220.61q0-6.45,0-12.9c0-3.62-.07-7.24-.17-10.86a157.53,157.53,0,0,0-2.07-23.64,80.2,80.2,0,0,0-7.41-22.49,75.64,75.64,0,0,0-33.06-33,79.63,79.63,0,0,0-22.47-7.4,156.37,156.37,0,0,0-23.65-2.08c-3.62-.1-7.24-.14-10.86-.17q-6.45,0-12.9,0H220.61q-6.45,0-12.9,0c-3.62,0-7.24.07-10.86.17a156.37,156.37,0,0,0-23.65,2.08,79.63,79.63,0,0,0-22.47,7.4,75.64,75.64,0,0,0-33.06,33.05,80.2,80.2,0,0,0-7.41,22.49,157.53,157.53,0,0,0-2.07,23.64c-.1,3.62-.14,7.24-.17,10.86q0,6.45,0,12.9V355.39q0,6.45,0,12.9c0,3.62.07,7.24.17,10.86a157.53,157.53,0,0,0,2.07,23.64,80.2,80.2,0,0,0,7.41,22.49,75.64,75.64,0,0,0,33.06,33.05,79.63,79.63,0,0,0,22.47,7.4,156.37,156.37,0,0,0,23.65,2.08c3.62.1,7.24.14,10.86.17q6.45,0,12.9,0H355.39q6.45,0,12.9,0c3.62,0,7.24-.07,10.86-.17a156.37,156.37,0,0,0,23.65-2.08,79.63,79.63,0,0,0,22.47-7.4,75.64,75.64,0,0,0,33.06-33.05,80.2,80.2,0,0,0,7.41-22.49,157.53,157.53,0,0,0,2.07-23.64c.1-3.62.14-7.24.17-10.86q0-6.45,0-12.9Z" transform="translate(-108 -108)"/><path class="cls-2" d="M316.64,201.29c-13.17-1-24.34,7.36-30.58,7.36s-16.08-7.15-26.42-7c-13.58.2-26.09,7.9-33.1,20.06-14.1,24.48-3.6,60.75,10.14,80.62,6.72,9.7,14.74,20.64,25.26,20.24,10.14-.4,14-6.55,26.22-6.55s15.69,6.55,26.41,6.36c10.9-.21,17.81-9.91,24.48-19.67A87.52,87.52,0,0,0,350.13,280c-.24-.1-21.26-8.16-21.47-32.38-.19-20.24,16.53-30,17.29-30.44C336.46,203.21,321.81,201.67,316.64,201.29Z" transform="translate(-108 -108)"/><path class="cls-2" d="M308.52,188.18c5.59-6.76,9.35-16.18,8.32-25.55-8,.32-17.79,5.37-23.57,12.12-5.17,6-9.71,15.58-8.48,24.75C293.77,200.19,302.93,194.94,308.52,188.18Z" transform="translate(-108 -108)"/><path d="M177.51,388.36h-14l-3.36,9.92h-5.92l13.25-36.7h6.16l13.25,36.7h-6ZM165,383.78h11.09l-5.47-16.1h-.15Z" transform="translate(-108 -108)"/><path d="M215.64,384.9c0,8.47-4.45,13.84-11.17,13.84a9.12,9.12,0,0,1-8.42-4.86h-.13v13.25h-5.49V371.52h5.32v4.61h.1a9.26,9.26,0,0,1,8.52-5C211.16,371.09,215.64,376.43,215.64,384.9Zm-5.65,0c0-5.59-2.72-9.18-7.07-9.18-4.2,0-7,3.66-7,9.18s2.8,9.19,7,9.19S210,390.52,210,384.9Z" transform="translate(-108 -108)"/><path d="M245.42,384.9c0,8.47-4.45,13.84-11.16,13.84a9.11,9.11,0,0,1-8.42-4.86h-.13v13.25h-5.49V371.52h5.31v4.61h.1a9.28,9.28,0,0,1,8.53-5C241,371.09,245.42,376.43,245.42,384.9Zm-5.64,0c0-5.59-2.72-9.18-7.07-9.18s-7,3.66-7,9.18,2.79,9.19,7,9.19S239.78,390.52,239.78,384.9Z" transform="translate(-108 -108)"/><path d="M250.1,361.58h5.5v36.7h-5.5Z" transform="translate(-108 -108)"/><path d="M284.5,390.42c-.76,4.89-5.39,8.37-11.52,8.37-7.86,0-12.62-5.32-12.62-13.76s4.83-14,12.39-14,12.05,5.24,12.05,13.35v1.89H265.9v.33c0,4.65,2.8,7.73,7.2,7.73,3.13,0,5.45-1.58,6.18-3.92Zm-18.57-8h13.38c-.13-4.1-2.72-7-6.56-7S266.21,378.39,265.93,382.44Z" transform="translate(-108 -108)"/><path d="M289.43,379.92c0-11.63,6.56-18.95,16.81-18.95,8.32,0,14.6,5.11,15.57,12.77h-5.65a9.77,9.77,0,0,0-9.92-7.79c-6.67,0-11,5.47-11,14s4.27,14,11,14c5.12,0,8.75-2.62,9.9-7.05h5.67c-1.4,7.58-7.15,12-15.59,12C295.94,398.89,289.43,391.62,289.43,379.92Z" transform="translate(-108 -108)"/><path d="M325.23,390.68c0-4.68,3.59-7.56,9.95-7.91l7.32-.44v-2.06c0-3-2-4.75-5.37-4.75-3.17,0-5.16,1.52-5.64,3.91H326.3c.3-4.83,4.42-8.39,11-8.39s10.63,3.43,10.63,8.8v18.44h-5.26v-4.4h-.13a9.56,9.56,0,0,1-8.45,4.86C328.89,398.74,325.23,395.48,325.23,390.68Zm17.27-2.42v-2.11l-6.59.41c-3.28.23-5.13,1.67-5.13,4s1.93,3.87,4.88,3.87C339.5,394.39,342.5,391.75,342.5,388.26Z" transform="translate(-108 -108)"/><path d="M353.8,371.52H359v4.56h.13a6.45,6.45,0,0,1,6.43-5,9.74,9.74,0,0,1,1.89.21v5.11a7.82,7.82,0,0,0-2.47-.31c-3.54,0-5.72,2.37-5.72,6.16v16h-5.5Z" transform="translate(-108 -108)"/><path d="M393.05,390.42c-.76,4.89-5.39,8.37-11.52,8.37-7.86,0-12.62-5.32-12.62-13.76s4.84-14,12.39-14,12.06,5.24,12.06,13.35v1.89h-18.9v.33c0,4.65,2.8,7.73,7.2,7.73,3.13,0,5.44-1.58,6.18-3.92Zm-18.57-8h13.38c-.12-4.1-2.72-7-6.56-7S374.76,378.39,374.48,382.44Z" transform="translate(-108 -108)"/><path d="M412.58,398.27h-5v-10.9H397.2v-4.95h10.37v-10.9h5v10.9H423v4.95H412.58Z" transform="translate(-108 -108)"/></svg>